# xmcd
#
# Track frame offsets: 
#        150
#        15902
#        37252
#        55460
#        76099
#        94111
#        108418
#        120579
#        131368
#        150156
#        165183
#        180428
#
# Disc length: 2643 seconds
#
# Revision: 0
# Processed by: cddbd v1.5.2PL0 Copyright (c) Steve Scherf et al.
# Submitted via: ExactAudioCopy v0.99pb4
#
DISCID=7e0a510c
DTITLE=Wendy Bird - Natural Wonder
DYEAR=2009
DGENRE=Country
TTITLE0=Natural Wonder
TTITLE1=Deliver Me
TTITLE2=Is Anybody Here
TTITLE3=Don't Expect a Reply (Runaway Train)
TTITLE4=As You Pass By
TTITLE5=In My Hand
TTITLE6=I Believe
TTITLE7=We've Both Been There
TTITLE8=Be Like That
TTITLE9=Oh My Love
TTITLE10=The Curtains Close
TTITLE11=(Born to Be) Riding Only Down
EXTD=
EXTT0=
EXTT1=
EXTT2=
EXTT3=
EXTT4=
EXTT5=
EXTT6=
EXTT7=
EXTT8=
EXTT9=
EXTT10=
EXTT11=
PLAYORDER=
